<svg width="225" height="18" viewBox="0 0 225 18" xmlns="http://www.w3.org/2000/svg">
    <rect width="225" height="18" fill="#FFFFFF"/>
    <path d="
        M6 0h6v6H6zM18 0h6v6h-6zM30 0h6v6h-6zM42 0h6v6h-6zM54 0h6v6h-6zM66 0h6v6h-6zM78 0h6v6h-6zM90 0h6v6h-6zM102 0h6v6h-6zM114 0h6v6h-6zM126 0h6v6h-6zM138 0h6v6h-6zM150 0h6v6h-6zM162 0h6v6h-6zM174 0h6v6h-6zM186 0h6v6h-6zM198 0h6v6h-6zM210 0h6v6h-6zM222 0h3v6h-3z
        M0 6h6v6H0zM12 6h6v6h-6zM24 6h6v6h-6zM36 6h6v6h-6zM48 6h6v6h-6zM60 6h6v6h-6zM72 6h6v6h-6zM84 6h6v6h-6zM96 6h6v6h-6zM108 6h6v6h-6zM120 6h6v6h-6zM132 6h6v6h-6zM144 6h6v6h-6zM156 6h6v6h-6zM168 6h6v6h-6zM180 6h6v6h-6zM192 6h6v6h-6zM204 6h6v6h-6zM216 6h6v6h-6z
        M6 12h6v6H6zM18 12h6v6h-6zM30 12h6v6h-6zM42 12h6v6h-6zM54 12h6v6h-6zM66 12h6v6h-6zM78 12h6v6h-6zM90 12h6v6h-6zM102 12h6v6h-6zM114 12h6v6h-6zM126 12h6v6h-6zM138 12h6v6h-6zM150 12h6v6h-6zM162 12h6v6h-6zM174 12h6v6h-6zM186 12h6v6h-6zM198 12h6v6h-6zM210 12h6v6h-6zM222 12h3v6h-3z
    " fill="#CBCBCB"/>
</svg>