<svg viewBox="0 0 48 48" fill="none" xmlns="http://www.w3.org/2000/svg">
    <g id="SVGRepo_bgCarrier" stroke-width="0"></g>
    <g id="SVGRepo_tracerCarrier" stroke-linecap="round" stroke-linejoin="round"></g>
    <g id="SVGRepo_iconCarrier" transform="translate(-11.1, -8) scale(2.8)">
        <path d="M16.9998 9.82842L8.96354 17.8648C8.68434 18.144 8.32874 18.3343 7.94155 18.4118L7.7181 18.4565M16.9998 9.82842L19.7926 7.03559C20.1832 6.64507 20.1832 6.0119 19.7926 5.62138L18.3784 4.20716C17.9879 3.81664 17.3547 3.81664 16.9642 4.20716L14.1714 6.99999M16.9998 9.82842L14.1714 6.99999M16.9998 9.82842L18.9998 11.8284M14.1714 6.99999L6.1351 15.0364C5.85591 15.3156 5.6656 15.6712 5.58816 16.0584L5.53014 16.3485M14.1714 6.99999L12.1715 5.00006M5.53014 16.3485L5.35337 17.2323L4.99981 19.0001L7.7181 18.4565M5.53014 16.3485L7.7181 18.4565" stroke="#000000" stroke-width="2" stroke-linecap="round" stroke-linejoin="round"></path>
    </g>
</svg>